<?xml version="1.0" standalone="no"?>
<!DOCTYPE svg PUBLIC "-//W3C//DTD SVG 20010904//EN"
 "http://www.w3.org/TR/2001/REC-SVG-20010904/DTD/svg10.dtd">
<svg version="1.0" xmlns="http://www.w3.org/2000/svg"
 width="432.000000pt" height="90.000000pt" viewBox="0 0 432.000000 90.000000"
 preserveAspectRatio="xMidYMid meet">

<g transform="translate(0.000000,90.000000) scale(0.100000,-0.100000)"
fill="#000000" stroke="none">
<path d="M1800 710 c0 -82 -4 -150 -8 -150 -5 0 -15 12 -22 26 -8 14 -31 34
-51 45 -120 60 -261 10 -303 -108 -35 -100 -28 -280 14 -363 39 -76 133 -118
225 -101 52 10 77 24 108 61 14 16 28 30 31 30 3 0 6 -19 8 -42 l3 -43 78 -3
77 -3 0 401 0 400 -80 0 -80 0 0 -150z m-51 -206 c33 -23 51 -74 51 -141 0
-123 -35 -173 -120 -173 -36 0 -53 6 -73 24 -34 32 -40 57 -36 167 4 85 6 92
32 115 34 29 109 33 146 8z"/>
<path d="M240 642 c-122 -36 -189 -155 -177 -316 13 -178 107 -268 282 -268
124 -1 207 42 246 127 29 64 28 65 -60 65 -70 0 -80 -2 -86 -19 -7 -22 -62
-51 -98 -51 -70 0 -117 42 -117 105 l0 36 193 -1 192 -1 -1 59 c-1 95 -22 151
-73 202 -74 74 -184 96 -301 62z m183 -142 c15 -17 27 -41 27 -55 l0 -25 -110
0 c-108 0 -110 0 -110 23 0 53 67 101 130 92 22 -3 45 -15 63 -35z"/>
<path d="M1019 651 c-41 -13 -77 -40 -98 -74 -22 -35 -28 -28 -33 33 l-3 35
-77 3 -78 3 0 -296 0 -296 83 3 82 3 5 195 c5 201 11 229 50 250 28 15 103 12
127 -5 35 -24 43 -77 43 -267 l0 -178 81 0 80 0 -3 233 c-3 223 -4 234 -27
273 -13 24 -40 51 -62 64 -43 23 -129 34 -170 21z"/>
<path d="M2226 645 c-59 -21 -87 -46 -116 -101 -23 -45 -25 -59 -25 -185 0
-131 1 -137 30 -195 40 -77 89 -107 179 -106 74 0 128 22 159 65 l22 29 5 -44
5 -43 80 0 80 0 0 290 0 290 -76 3 -77 3 -6 -45 -7 -46 -37 39 c-55 58 -135
75 -216 46z m209 -141 c32 -21 45 -63 45 -149 0 -123 -30 -165 -118 -165 -82
0 -119 67 -109 196 6 76 18 107 52 123 31 15 103 13 130 -5z"/>
<path d="M2727 644 c-3 -3 -1 -18 5 -33 18 -46 159 -455 170 -491 17 -57 22
-60 123 -60 62 0 96 4 102 13 12 15 193 543 193 563 0 11 -17 14 -79 14 l-79
0 -10 -32 c-9 -28 -106 -354 -119 -398 -7 -23 -15 -3 -58 140 -20 69 -48 162
-61 208 l-25 82 -78 0 c-43 0 -80 -3 -84 -6z"/>
<path d="M3422 418 c3 -233 3 -233 30 -279 34 -58 82 -82 160 -82 69 1 125 27
153 71 11 17 23 31 26 32 4 0 9 -23 13 -50 l7 -50 74 0 75 0 0 295 0 295 -80
0 -80 0 0 -180 c0 -194 -8 -233 -51 -264 -26 -18 -90 -21 -120 -6 -42 23 -49
58 -49 260 l0 190 -81 0 -80 0 3 -232z"/>
<path d="M4173 202 l-63 -3 0 -54 c0 -34 4 -55 11 -55 6 0 9 7 6 15 -4 8 -2
17 4 20 5 4 9 3 8 -2 -4 -20 2 -34 14 -32 6 1 23 0 37 -1 14 -2 -2 -6 -35 -10
l-60 -7 75 -1 75 -2 -1 65 c-1 36 -3 67 -5 68 -2 1 -32 1 -66 -1z m55 -69 l-2
-58 -3 52 -4 52 -42 4 -42 4 48 1 47 2 -2 -57z m-21 5 c-3 -7 -5 -2 -5 12 0
14 2 19 5 13 2 -7 2 -19 0 -25z m-43 -4 c3 -8 2 -12 -4 -9 -6 3 -10 10 -10 16
0 14 7 11 14 -7z"/>
</g>
</svg>
