<svg width="606" height="132" viewBox="0 0 606 132" fill="none" xmlns="http://www.w3.org/2000/svg">
<path fill-rule="evenodd" clip-rule="evenodd" d="M292.164 0C290.478 0 289.111 1.36485 289.111 3.04847V44.8525C282.399 37.2912 272.763 33.6823 261.406 33.6823C235.251 33.6823 215.118 52.242 215.118 81.2843C215.118 110.327 235.251 128.886 261.406 128.886C273.796 128.886 283.604 124.934 290.315 116.857V124.463C290.315 126.147 291.682 127.512 293.368 127.512H312.903C314.588 127.512 315.955 126.147 315.955 124.463V3.04847C315.955 1.36485 314.588 0 312.902 0H292.164ZM266.052 106.89C252.63 106.89 242.306 97.2662 242.306 81.2843C242.306 65.3025 252.63 55.6789 266.052 55.6789C279.303 55.6789 289.626 65.3025 289.626 81.2843C289.626 97.2662 279.303 106.89 266.052 106.89ZM49.386 33.6823C76.5742 33.6823 97.5676 51.8983 97.5676 81.6281C97.5676 82.8924 97.4382 84.4798 97.2985 86.0337C97.1558 87.6202 95.8197 88.8457 94.2247 88.8457H27.0161C29.5972 100.36 39.4056 107.405 53.516 107.405C62.1468 107.405 68.6458 105.143 74.4199 100.502C75.745 99.4369 77.6889 99.49 78.8421 100.739L89.1674 111.92C90.2257 113.066 90.2563 114.835 89.1492 115.934C80.5903 124.431 68.3448 128.886 52.8275 128.886C20.8213 128.886 0 108.78 0 81.2844C0 53.6168 21.1654 33.6823 49.386 33.6823ZM72.2723 73.2075C70.3794 61.5218 61.6036 53.9605 49.5582 53.9605C37.3407 53.9605 28.5647 61.35 26.6719 73.2075H72.2723ZM134.195 45.8836C141.423 37.9786 152.264 33.6823 164.826 33.6823C186.679 33.6823 203.198 46.3992 203.198 74.5824V124.463C203.198 126.147 201.832 127.512 200.146 127.512H179.407C177.721 127.512 176.354 126.147 176.354 124.463V78.7067C176.354 63.7559 169.472 56.8819 157.599 56.8819C144.692 56.8819 135.401 64.787 135.401 81.7999V124.463C135.401 126.147 134.034 127.512 132.348 127.512H111.609C109.923 127.512 108.556 126.147 108.556 124.463V38.1056C108.556 36.422 109.923 35.0572 111.609 35.0572H131.143C132.829 35.0572 134.195 36.422 134.195 38.1057V45.8836ZM333.531 43.3884C343.578 37.1021 357.492 33.6823 371.257 33.6823C399.478 33.6823 415.825 46.7428 415.825 74.7542V124.463C415.825 126.147 414.458 127.512 412.773 127.512H393.754C392.068 127.512 390.702 126.147 390.702 124.463V115.998C385.711 124.418 376.075 128.886 362.482 128.886C340.8 128.886 327.894 116.857 327.894 100.875C327.894 84.5495 339.423 73.2075 367.644 73.2075H388.981C388.981 61.6936 382.098 54.9916 367.644 54.9916C359.223 54.9916 350.548 57.3983 344.015 61.4506C342.379 62.4652 340.15 61.9886 339.27 60.278L332.542 47.1991C331.849 45.852 332.246 44.1925 333.531 43.3884ZM354.049 99.6722C354.049 106.374 359.728 110.842 369.192 110.842C378.14 110.842 385.884 106.718 388.981 98.2974V88.8457H370.568C358.008 88.8457 354.049 93.4856 354.049 99.6722ZM489.247 55.2884L471.134 97.9535L446.269 36.956C445.801 35.8078 444.683 35.057 443.441 35.057H422.384C420.202 35.057 418.725 37.277 419.57 39.2861L455.895 125.644C456.371 126.775 457.48 127.511 458.709 127.511H482.37C483.592 127.511 484.697 126.783 485.177 125.661L511.225 64.7996C511.225 64.7996 513.223 60.2855 514.3 58.0308C515.377 55.7761 517.354 54.505 519.695 54.505C522.946 54.505 525.582 57.1373 525.582 60.3845V91.3348C525.582 113.512 543.584 131.491 565.791 131.491C587.998 131.491 606 113.512 606 91.3349V45.7771C606 39.0291 600.522 33.5588 593.765 33.5588C587.009 33.5588 581.531 39.0291 581.531 45.7771V91.8226C581.531 100.504 574.484 107.542 565.791 107.542C557.098 107.542 550.051 100.504 550.051 91.8226V61.36C550.051 44.6169 536.46 31.044 519.695 31.044C507.628 31.044 496.707 38.1811 491.877 49.2239L489.247 55.2884Z" fill="#033E00"/>
</svg>
