<svg width="740" height="72" viewBox="0 0 740 72" fill="none" xmlns="http://www.w3.org/2000/svg">
<g clip-path="url(#clip0_7_1925)">
<path d="M82.0494 11.3267C77.7294 11.3267 73.5094 12.5767 69.5694 14.7867C72.8294 21.0267 73.8894 27.9367 73.8894 32.3567C73.8894 47.3267 64.4794 61.4467 52.1994 61.4467C43.1794 61.4467 36.6494 54.9167 36.6494 44.5567C36.6494 34.1967 43.7494 22.1867 53.7394 13.3567C51.7194 12.1067 49.3194 11.3367 46.3494 11.3367C33.5794 11.3367 9.38944 30.4367 12.2694 69.4167H0.739437C-2.14056 26.3967 26.6594 0.766724 46.3394 0.766724C53.6394 0.766724 59.0094 3.06672 63.1394 6.52672C69.1794 2.96672 75.7094 0.766724 82.0494 0.766724C110.459 0.766724 119.679 37.0567 90.6894 69.4067H77.1594C106.249 38.4967 98.4694 11.3267 82.0594 11.3267H82.0494ZM53.2494 51.4567C57.6694 51.4567 62.3694 43.8767 62.3694 33.0267C62.3694 29.9567 61.7894 25.7267 60.2594 21.7967C52.9594 28.9967 48.1594 38.4067 48.1594 44.8367C48.1594 48.8667 49.9794 51.4567 53.2494 51.4567V51.4567Z" fill="#040032"/>
<path d="M125.729 2.20673H151.739C154.619 2.20673 157.019 4.60673 157.019 7.48673C157.019 10.3667 154.619 12.7667 151.739 12.7667H131.489V28.9867H148.959C151.839 28.9867 154.239 31.3867 154.239 34.2667C154.239 37.1467 151.839 39.5467 148.959 39.5467H131.489V58.8367H151.739C154.619 58.8367 157.019 61.2367 157.019 64.1167C157.019 66.9967 154.619 69.3967 151.739 69.3967H119.969V7.96673C119.969 4.79673 122.559 2.20673 125.729 2.20673Z" fill="#040032"/>
<path d="M192.639 37.1467C192.639 34.2667 195.039 31.8667 197.919 31.8667H222.969C226.329 31.8667 229.309 34.2667 229.499 37.5267C231.319 55.2867 216.829 70.7367 198.109 70.7367C177.949 70.7367 164.699 53.6467 164.699 36.4667C164.709 16.5067 179.969 0.766724 198.789 0.766724C215.399 0.766724 223.649 11.3267 225.089 12.9567C225.759 13.9167 226.239 15.1667 226.239 16.4167C226.239 19.4867 223.739 21.9867 220.669 21.9867C218.849 21.9867 217.309 21.1267 216.249 19.8767C214.429 17.6667 209.429 11.3367 198.779 11.3367C185.919 11.3367 176.219 21.3167 176.219 36.4867C176.219 49.4467 184.379 60.1967 198.109 60.1967C209.439 60.1967 217.499 52.8067 218.079 42.4367H197.919C195.039 42.4367 192.639 40.0367 192.639 37.1567V37.1467Z" fill="#040032"/>
<path d="M288.639 2.20673C291.809 2.20673 294.399 4.79673 294.399 7.96673V44.6267C294.399 58.5467 282.879 71.1167 267.809 71.1167C252.739 71.1167 241.219 58.5367 241.219 44.6267V7.96673C241.219 4.79673 243.809 2.20673 246.979 2.20673C250.149 2.20673 252.739 4.79673 252.739 7.96673V44.6267C252.739 53.9367 258.789 60.5567 267.809 60.5567C276.829 60.5567 282.879 53.9367 282.879 44.6267V7.96673C282.879 4.79673 285.469 2.20673 288.639 2.20673Z" fill="#040032"/>
<path d="M346.239 0.666718C349.409 0.666718 351.999 3.25672 351.999 6.42672V46.5467L380.219 3.73672C381.469 1.81672 383.099 0.666718 385.399 0.666718C388.569 0.666718 391.159 3.25672 391.159 6.42672V69.3067H379.639V24.9567L351.319 67.9567C350.169 69.5867 348.439 70.9367 346.229 70.9367C343.059 70.9367 340.469 68.3467 340.469 65.1767V24.7567L310.709 69.3967H297.269L341.149 3.54672C341.919 2.39672 343.649 0.666718 346.239 0.666718Z" fill="#040032"/>
<path d="M411.329 2.20673H437.339C440.219 2.20673 442.619 4.60673 442.619 7.48673C442.619 10.3667 440.219 12.7667 437.339 12.7667H417.089V28.9867H434.559C437.439 28.9867 439.839 31.3867 439.839 34.2667C439.839 37.1467 437.439 39.5467 434.559 39.5467H417.089V58.8367H437.339C440.219 58.8367 442.619 61.2367 442.619 64.1167C442.619 66.9967 440.219 69.3967 437.339 69.3967H405.569V7.96673C405.569 4.79673 408.159 2.20673 411.329 2.20673V2.20673Z" fill="#040032"/>
<path d="M452.229 7.48673C452.229 4.60673 454.629 2.20673 457.509 2.20673H493.119C495.999 2.20673 498.399 4.60673 498.399 7.48673C498.399 10.3667 495.999 12.7667 493.119 12.7667H481.029V69.4067H469.509V12.7667H457.509C454.629 12.7667 452.229 10.3667 452.229 7.48673V7.48673Z" fill="#040032"/>
<path d="M508.479 69.3967V7.96673C508.479 4.79673 511.069 2.20673 514.239 2.20673C517.409 2.20673 519.999 4.79673 519.999 7.96673V30.6167H548.799V7.96673C548.799 4.79673 551.389 2.20673 554.559 2.20673C557.729 2.20673 560.319 4.79673 560.319 7.96673V69.4067H548.799V41.1867H519.999V69.4067H508.479V69.3967Z" fill="#040032"/>
<path d="M604.959 0.766724C624.249 0.766724 637.979 15.1667 637.979 35.8067C637.979 56.4467 624.249 70.8467 604.959 70.8467C585.669 70.8467 571.839 56.4467 571.839 35.8067C571.839 15.1667 585.569 0.766724 604.959 0.766724ZM626.459 35.8067C626.459 19.9667 618.299 11.3267 604.959 11.3267C591.619 11.3267 583.359 19.9667 583.359 35.8067C583.359 51.6467 591.519 60.2867 604.959 60.2867C618.399 60.2867 626.459 51.6467 626.459 35.8067Z" fill="#040032"/>
<path d="M655.269 2.20673H672.929C692.989 2.20673 706.719 16.0267 706.719 35.8067C706.719 55.5867 692.989 69.4067 672.929 69.4067H649.509V7.96673C649.509 4.79673 652.099 2.20673 655.269 2.20673ZM672.929 58.8467C687.229 58.8467 695.199 50.7867 695.199 35.8067C695.199 20.8267 687.229 12.7667 672.929 12.7667H661.029V58.8367H672.929V58.8467Z" fill="#040032"/>
<path d="M726.879 0.666718C733.889 0.666718 739.449 6.23672 739.449 13.1467C739.449 20.0567 733.879 25.6267 726.879 25.6267C719.879 25.6267 714.399 20.1567 714.399 13.1467C714.399 6.13672 719.969 0.666718 726.879 0.666718ZM726.879 24.5667C733.309 24.5667 738.299 19.6667 738.299 13.1467C738.299 6.62672 733.309 1.72672 726.879 1.72672C720.449 1.72672 715.549 6.71672 715.549 13.1467C715.549 19.5767 720.539 24.5667 726.879 24.5667ZM731.199 19.4767C731.009 19.4767 730.819 19.3767 730.719 19.1867L727.169 14.0967H724.289V18.8967C724.289 19.1867 723.999 19.4767 723.709 19.4767C723.419 19.4767 723.129 19.1867 723.129 18.8967V6.23672H727.449C729.749 6.23672 731.479 8.05672 731.479 10.1767C731.479 11.9967 730.229 13.5367 728.499 14.0167L731.669 18.6267C731.959 18.9167 731.669 19.4867 731.189 19.4867L731.199 19.4767ZM727.459 12.9467C729.189 12.9467 730.339 11.7967 730.339 10.1667C730.339 8.53672 729.189 7.38672 727.459 7.38672H724.289V12.9567H727.459V12.9467Z" fill="#040032"/>
</g>
<defs>
<clipPath id="clip0_7_1925">
<rect width="738.92" height="70.46" fill="white" transform="translate(0.539062 0.666718)"/>
</clipPath>
</defs>
</svg>
