<svg xmlns="http://www.w3.org/2000/svg" xml:space="preserve" width="935.569" height="133.468" class="spaceknow-logo" shape-rendering="geometricPrecision"><path d="M456.29 15.636v102.5h23.9v-47.1h.4l38.1 47.1h32.3l-46.8-55.4 44.4-47.1h-31l-37 41.6h-.4v-41.6zM579.59 118.136l-.8-67.2h.8l41.3 67.2h27.9v-102.5h-24l.4 66.8h-.4l-40.8-66.8h-28.3v102.5zM757.59 27.436c-5.1-4.7-11-8.2-17.7-10.6-6.7-2.4-14.1-3.9-22.4-3.9-7.9 0-15.3 1.2-22.4 3.9-6.7 2.4-12.6 5.9-17.7 10.6-5.1 4.7-9 10.2-11.8 16.9-2.8 6.7-4.3 14.1-4.3 22.4 0 8.3 1.6 15.7 4.3 22.4 2.7 6.7 6.7 12.6 11.8 17.3 5.1 4.7 11 8.6 17.7 11 6.7 2.7 14.1 3.9 22.4 3.9 7.9 0 15.3-1.2 22.4-3.9 6.7-2.7 13-6.3 17.7-11 5.1-4.7 9-10.6 11.8-17.3 2.8-6.7 4.3-14.1 4.3-22.4 0-8.3-1.6-15.7-4.3-22.4-3.2-6.7-7.1-12.2-11.8-16.9zm-13 51.8c-1.6 3.9-3.5 7.5-5.9 10.2-2.7 2.7-5.9 5.1-9.4 6.7-3.5 1.6-7.5 2.4-11.8 2.4-4.3 0-8.2-.8-11.8-2.4-3.5-1.6-6.7-3.9-9-6.7-2.7-2.7-4.7-6.3-5.9-10.2-1.6-3.9-2.4-8.2-2.4-13 0-4.3.8-8.6 2-12.6 1.6-3.9 3.5-7.1 5.9-9.8 2.7-2.7 5.9-5.1 9.4-6.7 3.5-1.6 7.5-2.4 11.8-2.4 4.3 0 8.2.8 11.8 2.4 3.5 1.6 6.7 3.9 9.4 6.7 2.7 2.8 4.7 5.9 5.9 9.8 1.6 3.9 2.4 7.9 2.4 12.6 0 4.7-.8 9.1-2.4 13zM818.89 83.936h-.4l-16.5-68.3h-26.3l29 102.5h24.4l20.4-69.5h.4l20.4 69.5h24.4l29.5-102.5h-26l-16.5 68.3h-.4l-18.4-68.3h-25.9zM66.39 70.236c-2.7-2.4-6.3-3.9-9.8-5.1-3.5-1.2-7.1-2.7-10.6-3.9-2.7-.8-5.5-2-8.2-2.7-2.7-.7-5.1-2.4-7.1-3.5-2-1.6-3.9-3.1-5.1-5.5-1.2-2.4-2-5.1-2-8.2 0-3.1.8-6.3 2-8.6 1.2-2.4 3.1-4.3 5.1-5.9 2-1.6 4.3-2.7 7.1-3.5 2.8-.8 5.1-1.2 7.9-1.2 5.1 0 9 .8 12.6 2.7 3.5 2 6.3 4.3 8.6 7.5l8.2-6.7c-2.4-3.5-6.3-6.3-11-8.6-5.1-2.4-11-3.9-18.1-3.9-3.9 0-7.5.8-11.4 1.6-3.9 1.2-7.5 2.7-10.6 5.1-3.1 2.4-5.9 5.5-7.9 9s-2.7 7.9-2.7 12.6c0 4.7.8 8.6 2.4 11.8 1.6 3.1 3.5 5.9 6.3 7.9 2.7 2.4 5.5 3.9 9 5.1 3.1 2 6.3 3.1 9.8 3.9 3.1 1.2 6.3 2 9.4 3.1 3.1 1.2 5.5 2.4 7.9 3.9 2.4 1.6 4.3 3.5 5.5 5.9 1.6 2.4 2 5.5 2 9 0 3.1-.8 6.3-2 8.6-1.6 2.4-3.1 4.7-5.5 6.3-2.4 1.6-4.7 3.1-7.5 3.9-2.8.8-5.5 1.2-7.9 1.2-5.5 0-10.2-1.2-14.1-3.5-3.9-2.3-7.1-5.5-9.4-9l-8.6 6.3c2 2.4 3.9 4.7 6.3 6.7s5.1 3.5 7.9 4.7c2.7 1.2 5.9 2.4 8.6 2.7 3.1.8 6.3.8 9.4.8 3.9 0 8.2-.4 12.2-1.6 3.9-1.2 7.5-2.7 10.6-5.5 3.1-2.4 5.5-5.5 7.5-9s2.7-8.2 2.7-13.4c0-5.1-.8-9.4-2.7-12.6-1.7-3.3-4-6.1-6.8-8.4zM158.69 43.136c0-4.7-.8-8.6-2.4-12.2-1.6-3.6-3.9-6.3-7.1-8.6-3.1-2.4-6.7-3.9-11-5.1-4.3-1.2-9-1.6-14.1-1.6h-29.1v102.5h10.6v-47.5h18.1c5.1 0 9.8-.4 14.1-1.6 4.3-1.2 7.9-2.7 11-5.1 3.1-2.4 5.5-5.1 7.1-8.6 2.1-3.6 2.8-7.5 2.8-12.2zm-16.9 13.7c-4.3 3.1-10.6 4.7-18.9 4.7h-17.7v-36.9h17.7c7.9 0 14.1 1.6 18.5 4.3 4.7 3.1 6.7 7.5 6.7 14.1 0 6-1.9 10.7-6.3 13.8zM198.79 15.636l-44 102.5h11.4l11-27.1h53l11.4 27.1h11.8l-44.4-102.5zm-17.7 66 22.8-54.6 22.8 54.6zM326.89 107.936c-5.5 2.4-11 3.5-16.9 3.5-6.7 0-12.6-1.2-17.7-3.5-5.1-2.4-9.8-5.5-13.4-9.8-3.5-3.9-6.7-8.6-8.6-14.1-2-5.5-3.1-11-3.1-16.9 0-5.9.8-11.8 2.7-16.9 2-5.5 4.7-10.2 8.2-14.1 3.5-3.9 8.2-7.5 13.4-9.8 5.1-2.4 11.4-3.5 18.1-3.5 3.1 0 6.3.4 9 1.2 2.7.8 5.5 2 7.9 3.1 2.4 1.2 4.3 2.7 6.3 4.3 2.4 1.2 3.9 2.7 5.1 4.3l8.6-6.3c-1.6-2.4-3.9-4.7-6.7-6.7-2.7-2-5.5-3.5-8.6-5.1-3.1-1.6-6.7-2.4-10.2-3.1-3.5-1.2-7.1-1.6-11-1.6-7.5 0-14.5 1.2-21.2 3.9-6.7 2.7-12.2 6.3-16.9 11.4-4.7 4.7-8.6 10.6-11.4 16.9-2.7 6.7-3.9 13.7-3.9 21.6 0 7.9 1.2 14.9 3.9 21.6 2.7 6.7 6.3 12.2 11 16.9 4.7 4.7 10.2 8.6 16.9 11.4 6.7 2.8 13.7 3.9 21.6 3.9 4.7 0 9-.4 13-1.6 4-1.2 7.5-2.4 10.6-4.3 3.1-1.6 5.9-3.9 8.6-6.3 2.4-2.4 4.7-4.7 6.3-7.5l-8.2-5.1c-3.6 5.9-7.9 9.8-13.4 12.2zM426.29 25.036v-9.4h-63.7v102.5h65.6v-9h-55v-39.7h49.5v-9.4h-49.5v-35z" class="st0"/><path d="M5 5h925.569v123.468H5z" style="fill:none"/></svg>