<svg xmlns="http://www.w3.org/2000/svg" width="800pt" height="279.123" viewBox="0 0 800 209.342"><g data-name="Layer"><clipPath id="a"><path d="M0 0h800v209.342H0Z"/></clipPath><g clip-path="url(#a)"><path d="M81.806 0h-.026c-3.218.001-9.247.308-10.331.446a25.825 25.825 0 0 0-16.764 9.321A25.757 25.757 0 0 0 51.34 37.04l3.362 5.386 3.034 4.86 38.312 61.38 2.279 3.65s1.998 3.244 2.689 4.31c2.875 4.434 11.522 8.46 19.097 8.46 9.318 0 17.688-4.807 22.017-12.332 1.67-2.904 4.133-10.649 4.539-12.07a78.462 78.462 0 0 0 3.038-21.626C149.707 39.275 120.533 0 81.806 0m0 10c15.188 0 29.657 7.441 40.742 20.953 10.904 13.293 17.159 30.825 17.159 48.104 0 6.375-.892 12.725-2.651 18.874-.67 2.34-2.757 8.372-3.594 9.836-2.597 4.514-7.712 7.318-13.35 7.318-4.65 0-9.637-2.579-10.735-3.946-.54-.837-2.007-3.21-2.536-4.07l-.016-.025-.016-.025-2.278-3.65-38.313-61.382-3.033-4.855-3.007-4.82a15.643 15.643 0 0 1-1.297-6.229c0-3.683 1.23-7.142 3.559-10.003a15.778 15.778 0 0 1 10.22-5.707c1.07-.104 6.314-.372 9.12-.373h.026M95.871 126.01s18.104 29.274 18.042 29.309a36.063 36.063 0 0 1 5.04 18.425c0 20.011-16.223 36.232-36.23 36.232-17.914 0-32.78-13.003-35.702-30.082-.339-2.001-3.027-18.053-3.47-21.656-1.355-10.988-7.71-26.204-17.632-35.434-.968-.9-1.979-1.75-2.967-2.629-6.35-5.651-15.103-11.75-18.402-19.731A60.021 60.021 0 0 1 0 77.465c0-4.598.462-8.775 1.01-13.105a35.06 35.06 0 0 1 .956-4.841c1.168-4.18 2.626-8.068 5.206-11.294a25.39 25.39 0 0 1 1.184-1.355c4.73-5.128 11.482-8.368 19.011-8.368 7.684 0 15.034 2.988 19.304 8.69 1.321 1.765 49.2 78.818 49.2 78.818M257.38 141.827c12.332 0 23.85-.995 23.85-18.26 0-19.73-54.268-13.81-54.268-39.297 0-15.957 12.003-21.219 30.91-21.219 6.743 0 16.617.33 23.687 1.644 1.15.33 1.809 1.316 1.809 2.631 0 1.644-1.151 2.631-2.795 2.631-5.93-1.15-14.972-1.81-22.206-1.81-21.704 0-25.65 6.258-25.65 16.123 0 19.895 54.268 14.8 54.268 39.297 0 21.877-15.62 23.358-29.605 23.358-7.728 0-22.526-1.645-29.76-5.436-.823-.483-1.315-1.307-1.315-2.467 0-1.634 1.15-2.959 2.795-2.959.493 0 .986.173 1.315.338 11.016 5.088 21.375 5.426 26.965 5.426M351.932 65.518c.493-.823 1.479-1.646 2.466-1.646 1.644 0 2.96 1.48 2.96 2.96 0 .66-.164 1.151-.493 1.645l-28.126 42.265v32.401c0 1.643-1.151 2.958-2.786 2.958a2.948 2.948 0 0 1-2.968-2.958v-32.4l-28.116-42.266a2.778 2.778 0 0 1-.494-1.645c0-1.48 1.315-2.96 2.96-2.96.986 0 1.973.823 2.466 1.646l25.979 39.798ZM376.257 70.45v72.692c0 1.644-1.15 2.96-2.795 2.96a2.947 2.947 0 0 1-2.96-2.96V69.3c0-2.96 2.302-5.427 5.262-5.427 1.808 0 3.618.988 4.439 2.303l47.363 74.007v-73.35a2.948 2.948 0 0 1 2.96-2.96c1.644 0 2.794 1.316 2.794 2.96v73.845c0 2.96-2.301 5.424-5.26 5.424-1.81 0-3.453-.985-4.441-2.3ZM453.052 67.162c0-1.81 1.479-3.29 3.123-3.29h47.692c1.48 0 2.63 1.152 2.63 2.631 0 1.48-1.15 2.467-2.63 2.467h-45.061v33.551h39.142c1.47 0 2.622 1.151 2.622 2.631 0 1.48-1.152 2.467-2.622 2.467h-39.142v33.387h45.06c1.48 0 2.63 1.151 2.63 2.631 0 1.48-1.15 2.464-2.63 2.464h-47.691c-1.644 0-3.123-1.479-3.123-3.288ZM539.866 80.489h-15.455c-4.606 0-8.387-3.617-8.387-8.23 0-4.604 3.781-8.386 8.387-8.386h47.69c4.604 0 8.386 3.782 8.386 8.386 0 4.613-3.782 8.23-8.386 8.23h-15.127v57.063c0 4.77-3.782 8.55-8.558 8.55-4.77 0-8.55-3.78-8.55-8.55ZM589.52 72.423c0-4.768 3.783-8.55 8.552-8.55h40.621c4.602 0 8.385 3.782 8.385 8.386 0 4.614-3.783 8.23-8.385 8.23H606.63v17.1h27.952c4.111 0 7.563 3.289 7.563 7.399 0 4.11-3.452 7.563-7.563 7.563H606.63v18.416h32.885c4.11 0 7.563 3.462 7.563 7.564 0 4.119-3.453 7.57-7.563 7.57h-41.443c-4.77 0-8.552-3.78-8.552-8.55ZM696.24 146.925c-21.539 0-35.515-7.729-35.515-31.579V94.629c0-21.374 13.976-31.578 35.515-31.578 4.933 0 13.976.822 21.713 2.302 3.617.822 6.412 4.285 6.412 8.056 0 4.275-3.78 8.067-8.222 8.067-6.915-1.316-15.299-2.138-20.232-2.138-9.208 0-18.086 4.933-18.086 13.975v23.02c0 10.852 8.714 15.619 17.922 15.619 4.767 0 13.811-.821 21.055-2.3 4.275 0 7.892 3.626 7.892 7.736 0 3.618-2.63 6.741-6.084 7.564-8.057 1.644-17.108 1.973-22.37 1.973M782.9 112.223h-28.783v25.329c0 4.77-3.782 8.55-8.55 8.55-4.77 0-8.55-3.78-8.55-8.55v-65.13c0-4.767 3.78-8.55 8.55-8.55 4.768 0 8.55 3.783 8.55 8.55V97.26H782.9V72.423c0-4.768 3.782-8.55 8.55-8.55 4.768 0 8.551 3.782 8.551 8.55v65.129c0 4.77-3.783 8.55-8.55 8.55-4.769 0-8.55-3.78-8.55-8.55Z"/></g></g></svg>