<?xml version="1.0" encoding="utf-8"?>
<!-- Generator: Adobe Illustrator 24.3.0, SVG Export Plug-In . SVG Version: 6.00 Build 0)  -->
<svg version="1.1" id="Layer_1" xmlns="http://www.w3.org/2000/svg" xmlns:xlink="http://www.w3.org/1999/xlink" x="0px" y="0px"
	 viewBox="0 0 260 91.2" style="enable-background:new 0 0 260 91.2;" xml:space="preserve">
<style type="text/css">
	.st0{fill:#2C2E2E;}
</style>
<g>
	<path class="st0" d="M55.3,31.7H20.5v42c0,3.4,2.8,6.1,6.2,6.1h10.3l0,10.2H24.6c-9.2,0-16.4-7.3-16.4-16.4v-42H0V21.5h8.3V5.1
		L20.5,1v20.5h34.8V31.7z M59.4,21.5h22.5c9.1,0,16.4,7.3,16.4,15.8V90H86v-5.1c0,0-4,6.2-14.4,6.2c-12.3,0-24.5-8.4-24.5-22.6
		C47.1,54.3,59.4,46,71.7,46c6.6,0,14.3,0,14.3,0v-8.4c0-2.9-2.1-5.9-5.9-5.9H59.4V21.5z M86,56.3H71.7c-4.1,0-12.3,3.2-12.3,12.3
		c0,10.2,8.3,12.3,12.3,12.3c10.3,0,14.3-6.1,14.3-11.5V56.3z"/>
	<path class="st0" d="M163.8,56V1l-12.3,0v25.4c-5-3.7-10.2-6.1-18.3-6.1c-19.7,0-30.7,15.3-30.7,35.7c0,19.4,11,35.2,30.7,35.2
		C152.5,91.2,163.7,75.4,163.8,56 M133.2,81c-13.3,0-18.4-12.9-18.4-25c0-12.3,5.3-25.5,18.4-25.5c12.4,0,18.2,13.3,18.2,25.5
		C151.4,68.1,145.5,81,133.2,81"/>
	<path class="st0" d="M198.7,30.4c12.1,0,18.4,13.3,18.4,25.4c0,12.1-6.2,25.1-18.4,25.1c-12.2,0-18.5-12.6-18.5-25
		C180.2,43.7,186.4,30.4,198.7,30.4 M198.7,91.1c19.4,0,30.6-14.7,30.6-35.5c0-20.2-11.3-35.3-30.6-35.3
		c-19.6,0-30.7,15.1-30.7,35.3C168,76.3,179.1,91.1,198.7,91.1"/>
	<path class="st0" d="M243.6,0c-9.1,0-16.4,7.3-16.4,16.4c0,9.1,7.4,16.4,16.4,16.4c9.1,0,16.4-7.3,16.4-16.4
		C260,7.3,252.7,0,243.6,0 M243.6,28.7c-6.8,0-12.3-5.5-12.3-12.3c0-6.8,5.5-12.3,12.3-12.3c6.8,0,12.3,5.5,12.3,12.3
		C255.9,23.2,250.4,28.7,243.6,28.7"/>
</g>
</svg>
