<svg width="157" height="41" fill="none" xmlns="http://www.w3.org/2000/svg"><path d="m68.426 24.706-2.156 5.988c0 .24-.24.24-.24.24h-3.353c-.24 0-.24 0-.24-.24 1.916-5.029 4.79-13.652 6.947-19.401 0-.239.24-.718.24-1.916 0-.24 0-.24.24-.24h4.55c.24-.24.24 0 .24 0 2.394 6.946 5.269 14.372 7.664 21.319 0 .239 0 .239-.239.239h-3.834c-.238 0-.238 0-.238-.24l-2.157-5.987h-7.424v.238Zm6.706-3.353c-.718-2.155-2.395-6.706-2.874-9.101-.48 2.155-1.916 5.988-2.874 9.101h5.748Zm9.343 1.438c0-4.791 3.592-8.624 9.34-8.624.72 0 1.438 0 1.918.24V7.221c0-.24 0-.24.238-.24h3.593c.239 0 .239 0 .239.24v21.796c0 .24 0 .24-.239.24-2.156.958-4.552 1.678-6.706 1.678-5.032.239-8.383-2.395-8.383-8.144Zm11.017-5.03c-.48-.24-1.198-.24-1.916-.24-3.113 0-5.03 1.916-5.03 5.27 0 3.83 2.155 5.27 4.791 5.27.718 0 1.675-.241 2.395-.241V17.76h-.24Zm24.431 4.791c0 5.268-3.354 8.622-8.144 8.622-5.747 0-8.143-4.311-8.143-8.383 0-5.03 3.352-8.384 8.384-8.384 5.029-.24 7.903 3.593 7.903 8.145Zm-12.214 0c0 3.352 1.436 5.509 4.07 5.509 2.156 0 3.834-1.439 3.834-5.509 0-3.115-1.198-5.51-4.072-5.51-2.158.239-3.832 2.156-3.832 5.51Zm19.4-15.33c.239 0 .239 0 .239.24v7.663c1.198-.478 2.395-.718 3.593-.718 4.552 0 7.426 3.353 7.426 7.666 0 5.747-4.552 9.34-9.821 9.34-1.675 0-3.352-.24-5.029-.719-.239 0-.239-.238-.239-.238V7.46c0-.24 0-.24.239-.24h3.592Zm3.114 10.298c-.957 0-1.916.24-2.634.48v9.82c.479.24 1.197.24 1.916.24 2.395 0 5.269-1.915 5.269-5.75-.24-3.112-2.156-4.79-4.551-4.79Zm15.81 5.989c0 2.636 1.675 4.31 5.029 4.31 1.197 0 2.634-.238 4.072-.717 0 0 .239 0 .239.24v2.634c0 .239 0 .239-.239.48-1.197.718-2.875.956-5.031.956-5.988 0-8.384-4.07-8.384-8.383 0-4.79 2.875-8.622 7.906-8.622 5.03 0 6.945 3.832 6.945 6.946 0 1.437-.238 2.155-.238 2.155h-10.299Zm5.267-2.635c1.198 0 1.439-.239 1.439-.239v-.48c0-.957-.718-3.113-3.354-3.113-2.155 0-3.352 1.676-3.593 3.832h5.508ZM28.886.275l16.767 40v-40H28.886ZM.383.275v40l16.767-40H.383Zm15.33 31.858h7.665l3.353 8.142h6.946l-10.779-25.39-7.186 17.248Z" fill="#080227"/></svg>