<svg width="34" height="41" fill="none" xmlns="http://www.w3.org/2000/svg"><path d="M33.026 31.663a21.75 21.75 0 0 1-2.15 3.867c-1.132 1.612-2.058 2.728-2.771 3.348-1.106 1.017-2.291 1.538-3.56 1.567-.912 0-2.01-.259-3.29-.785-1.282-.523-2.462-.782-3.54-.782-1.13 0-2.344.259-3.64.782-1.3.526-2.347.8-3.147.827-1.217.052-2.43-.483-3.64-1.61-.774-.674-1.74-1.829-2.898-3.466-1.243-1.748-2.264-3.775-3.064-6.086C.469 26.829.039 24.41.039 22.07c0-2.68.58-4.993 1.74-6.93.911-1.556 2.124-2.784 3.643-3.685a9.8 9.8 0 0 1 4.925-1.39c.966 0 2.234.3 3.81.887 1.57.59 2.579.888 3.021.888.33 0 1.451-.35 3.35-1.046 1.797-.647 3.313-.914 4.555-.809 3.365.272 5.893 1.598 7.575 3.988-3.01 1.824-4.499 4.378-4.47 7.655.028 2.552.954 4.676 2.774 6.362a9.113 9.113 0 0 0 2.77 1.818 29.924 29.924 0 0 1-.706 1.854ZM25.307 1.291c0 2-.73 3.868-2.187 5.597-1.758 2.055-3.885 3.243-6.19 3.056a6.236 6.236 0 0 1-.047-.758c0-1.92.836-3.976 2.32-5.656.742-.851 1.685-1.559 2.828-2.123 1.14-.556 2.22-.863 3.235-.916.03.267.041.535.041.8Z" fill="#080227"/></svg>