<svg width="122" height="41" fill="none" xmlns="http://www.w3.org/2000/svg"><path d="M52.484 21.325c0 5.755-4.502 9.996-10.027 9.996-5.525 0-10.027-4.24-10.027-9.996 0-5.795 4.502-9.995 10.027-9.995 5.525 0 10.027 4.2 10.027 9.995Zm-4.39 0c0-3.596-2.609-6.056-5.637-6.056-3.029 0-5.638 2.46-5.638 6.056 0 3.56 2.61 6.057 5.638 6.057s5.637-2.501 5.637-6.057ZM74.117 21.325c0 5.755-4.502 9.996-10.028 9.996-5.524 0-10.026-4.24-10.026-9.996 0-5.79 4.502-9.995 10.026-9.995 5.526 0 10.028 4.2 10.028 9.995Zm-4.39 0c0-3.596-2.61-6.056-5.638-6.056s-5.637 2.46-5.637 6.056c0 3.56 2.61 6.057 5.638 6.057s5.637-2.501 5.637-6.057ZM94.85 11.934v17.945c0 7.381-4.354 10.396-9.5 10.396-4.845 0-7.76-3.24-8.86-5.89l3.821-1.59c.68 1.626 2.348 3.546 5.034 3.546 3.294 0 5.336-2.032 5.336-5.858v-1.438h-.153c-.983 1.212-2.876 2.271-5.264 2.271-4.998 0-9.576-4.353-9.576-9.955 0-5.642 4.578-10.031 9.576-10.031 2.384 0 4.277 1.059 5.264 2.235h.153v-1.627h4.168v-.004Zm-3.858 9.427c0-3.52-2.348-6.092-5.336-6.092-3.028 0-5.566 2.573-5.566 6.092 0 3.484 2.538 6.021 5.566 6.021 2.988 0 5.336-2.537 5.336-6.02ZM101.719 1.416v29.292h-4.281V1.416h4.281ZM118.403 24.615l3.406 2.272c-1.099 1.626-3.749 4.43-8.328 4.43-5.678 0-9.919-4.39-9.919-9.996 0-5.944 4.277-9.996 9.428-9.996 5.187 0 7.724 4.128 8.554 6.36l.455 1.135-13.362 5.534c1.023 2.005 2.614 3.028 4.844 3.028 2.236 0 3.786-1.1 4.922-2.767Zm-10.487-3.596 8.932-3.709c-.491-1.248-1.97-2.118-3.709-2.118-2.231 0-5.336 1.97-5.223 5.827ZM16.226 18.725v-4.24h14.29c.14.739.212 1.613.212 2.56 0 3.18-.87 7.115-3.673 9.918-2.727 2.84-6.21 4.353-10.825 4.353-8.553 0-15.746-6.967-15.746-15.52C.484 7.242 7.677.276 16.23.276c4.732 0 8.103 1.856 10.636 4.276l-2.993 2.992c-1.816-1.703-4.276-3.028-7.647-3.028-6.246 0-11.131 5.034-11.131 11.28 0 6.246 4.885 11.28 11.13 11.28 4.052 0 6.36-1.627 7.838-3.105 1.198-1.199 1.987-2.912 2.298-5.25l-10.135.004Z" fill="#080227"/></svg>