<svg width="152" height="41" fill="none" xmlns="http://www.w3.org/2000/svg"><path fill-rule="evenodd" clip-rule="evenodd" d="m55.695 12.999.127 2.263c1.444-1.75 3.34-2.626 5.688-2.626 4.068 0 6.138 2.336 6.21 7.006V32.58h-4.386V19.895c0-1.243-.267-2.162-.803-2.76-.535-.598-1.411-.896-2.627-.896-1.77 0-3.089.803-3.954 2.407V32.58h-4.388V12.999h4.135-.002Zm25.098 19.944c-2.78 0-5.034-.877-6.76-2.632-1.728-1.756-2.592-4.094-2.592-7.014v-.542c0-1.954.376-3.701 1.128-5.24.752-1.538 1.81-2.735 3.17-3.593 1.36-.855 2.876-1.284 4.55-1.284 2.66 0 4.715.85 6.165 2.552 1.452 1.702 2.176 4.108 2.176 7.221v1.774H75.864c.134 1.616.671 2.895 1.616 3.836.945.941 2.135 1.412 3.567 1.412 2.01 0 3.646-.814 4.91-2.444l2.365 2.263c-.782 1.17-1.826 2.078-3.131 2.723-1.307.646-2.772.968-4.397.968Zm-.523-16.775c-1.204 0-2.175.422-2.915 1.266-.742.844-1.213 2.021-1.418 3.53h8.36v-.327c-.097-1.472-.488-2.584-1.174-3.339-.687-.753-1.637-1.13-2.853-1.13ZM97.53 8.24V13h3.45v3.257h-3.45v10.931c0 .748.149 1.287.443 1.62.295.331.822.497 1.58.497a6.745 6.745 0 0 0 1.535-.181v3.402c-.999.278-1.962.416-2.89.416-3.369 0-5.054-1.863-5.054-5.591V16.256h-3.217V13h3.215v-4.76h4.387l.002.001Zm11.467 24.342h-4.388V4.784h4.388v27.798Zm9.443 0h-4.388V13h4.388v19.582Zm-4.659-24.668c0-.674.213-1.236.64-1.682.429-.446 1.039-.67 1.833-.67.795 0 1.408.224 1.843.67.432.446.649 1.008.649 1.683 0 .663-.217 1.215-.649 1.655-.435.441-1.048.661-1.843.661-.794 0-1.404-.22-1.833-.66-.427-.44-.64-.993-.64-1.656v-.001Zm10.978 24.668V16.256h-2.979V13h2.979v-1.792c0-2.172.601-3.848 1.805-5.031 1.204-1.182 2.889-1.773 5.055-1.773.771 0 1.59.108 2.456.326l-.108 3.438a8.617 8.617 0 0 0-1.679-.144c-2.095 0-3.142 1.079-3.142 3.239v1.737h3.972v3.257h-3.972v16.325h-4.387Zm18.398-6.298L147.129 13h4.676l-7.763 22.55c-1.192 3.294-3.214 4.94-6.067 4.94-.638 0-1.342-.108-2.112-.326v-3.402l.831.054c1.106 0 1.94-.201 2.5-.606.559-.404 1.002-1.082 1.327-2.035l.632-1.684L134.292 13h4.73l4.135 13.284Z" fill="#080227"/><path d="m29.461 14.19-.014-.006c-.009-.003-.017-.006-.024-.013a.112.112 0 0 1-.029-.096l.796-4.866 3.732 3.733-3.881 1.652a.084.084 0 0 1-.034.006h-.016a.104.104 0 0 1-.02-.018 1.767 1.767 0 0 0-.51-.392Zm5.413-.296 3.99 3.99c.83.83 1.245 1.244 1.396 1.724.023.07.041.142.056.215l-9.537-4.04-.016-.005c-.038-.016-.082-.033-.082-.072 0-.04.045-.058.083-.073l.013-.006 4.097-1.734Zm5.279 7.21c-.206.387-.608.788-1.287 1.469l-4.5 4.498-5.818-1.212-.031-.006c-.052-.009-.106-.018-.106-.064a1.757 1.757 0 0 0-.675-1.228c-.023-.024-.017-.061-.01-.095 0-.005 0-.01.002-.015l1.095-6.718.004-.023c.006-.051.015-.111.061-.111a1.783 1.783 0 0 0 1.195-.685c.01-.01.015-.021.028-.028.032-.015.072 0 .106.015l9.935 4.203Zm-6.821 7.001-7.398 7.399L27.2 27.72l.002-.01a.144.144 0 0 1 .006-.03c.01-.024.037-.035.063-.045l.012-.005c.278-.118.523-.301.716-.532.025-.03.055-.057.093-.062a.093.093 0 0 1 .03 0l5.209 1.07h.001Zm-8.964 8.965-.834.834-9.22-13.325a.529.529 0 0 0-.01-.014c-.014-.02-.03-.04-.027-.062 0-.017.012-.03.023-.043l.01-.014c.028-.04.052-.082.077-.126l.021-.036.003-.003c.014-.025.028-.049.053-.062.021-.01.051-.006.075-.001l10.214 2.106a.168.168 0 0 1 .078.034c.014.014.017.028.02.044a1.81 1.81 0 0 0 1.058 1.21c.029.015.017.047.003.08a.242.242 0 0 0-.015.047l-1.53 9.33Zm-1.742 1.74c-.615.61-.977.931-1.387 1.061a2.06 2.06 0 0 1-1.242 0c-.48-.152-.894-.566-1.723-1.396l-9.259-9.259 2.419-3.75a.153.153 0 0 1 .04-.049c.027-.018.064-.01.095 0a2.506 2.506 0 0 0 1.686-.085c.028-.01.055-.018.077.002.01.01.02.02.029.033l9.265 13.445v-.001ZM8.123 28.325 5.999 26.2l4.194-1.79a.085.085 0 0 1 .034-.007c.035 0 .056.035.074.067.042.065.087.128.134.19l.013.016c.013.018.004.035-.008.052l-2.316 3.596h-.001ZM5.059 25.26l-2.687-2.687c-.458-.457-.79-.789-1.02-1.074l8.17 1.694.032.006c.05.008.106.017.106.064 0 .052-.061.076-.113.095l-.023.01-4.465 1.892ZM.883 20.117c.01-.173.04-.344.092-.51.153-.48.567-.893 1.397-1.723l3.438-3.439a2243.43 2243.43 0 0 0 4.763 6.885c.028.037.059.078.027.11-.15.165-.301.346-.407.543a.164.164 0 0 1-.051.064c-.014.008-.028.005-.044.002h-.002L.883 20.116v.001Zm5.848-6.592 4.621-4.624c.436.19 2.018.859 3.432 1.456 1.07.453 2.046.865 2.353.999.031.012.059.024.072.055.009.019.005.043 0 .062a2.063 2.063 0 0 0 .539 1.882c.03.031 0 .075-.027.113l-.014.022-4.695 7.272a.143.143 0 0 1-.044.051c-.025.016-.06.008-.089.001a2.335 2.335 0 0 0-.559-.076c-.169 0-.352.03-.537.065h-.001c-.021.003-.04.007-.056-.005a.215.215 0 0 1-.046-.053l-4.95-7.22Zm5.557-5.558 5.986-5.985c.829-.83 1.244-1.244 1.723-1.395a2.059 2.059 0 0 1 1.242 0c.48.151.895.566 1.723 1.395l1.298 1.297-4.258 6.593a.16.16 0 0 1-.042.05c-.025.017-.062.01-.092 0a2.159 2.159 0 0 0-1.977.38c-.028.03-.07.013-.104-.003-.556-.242-4.88-2.069-5.499-2.332Zm12.876-3.784 3.93 3.93-.947 5.867v.015a.142.142 0 0 1-.008.04c-.01.02-.03.024-.052.03a1.884 1.884 0 0 0-.584.299c-.012.012-.023.024-.041.026a.117.117 0 0 1-.045-.007l-5.99-2.545-.01-.006c-.039-.015-.084-.034-.084-.073a2.262 2.262 0 0 0-.32-.942c-.028-.047-.06-.097-.036-.145l4.187-6.49Zm-4.049 8.86 5.616 2.378c.03.015.064.028.078.06.005.02.005.04 0 .059-.017.082-.031.176-.031.27v.158c0 .04-.04.056-.077.071l-.012.004c-.89.38-12.488 5.326-12.505 5.326-.018 0-.036 0-.054-.017-.03-.031 0-.075.028-.114a.756.756 0 0 0 .014-.02l4.615-7.145.008-.013c.027-.043.057-.091.107-.091l.046.007c.105.014.198.028.292.028.7 0 1.348-.341 1.74-.924a.163.163 0 0 1 .035-.041c.027-.02.069-.01.1.004Zm-6.43 9.457 12.643-5.392s.018 0 .036.017c.069.07.127.116.184.159l.028.017c.026.015.051.031.053.058 0 .01 0 .016-.002.026l-1.083 6.653-.004.026c-.007.052-.014.11-.063.11a1.78 1.78 0 0 0-1.413.873l-.005.008c-.015.023-.028.046-.052.058-.022.01-.05.007-.072.002l-10.082-2.08c-.01-.002-.157-.534-.168-.535Z" fill="#080227"/></svg>