<svg width="152" height="36" viewBox="0 0 152 36" fill="none" xmlns="http://www.w3.org/2000/svg">
<path d="M59.9834 13.3506H63.8623V27.4772H59.9834V13.3506Z" fill="#080227" stroke="#080227" stroke-width="0.904268"/>
<path d="M79.3861 18.1682V27.4898H75.5071V19.1307C75.5071 18.2682 75.2898 17.4864 74.8067 16.9125C74.3141 16.3275 73.5908 16.013 72.7004 16.013C71.7719 16.013 70.9851 16.4039 70.4389 17.0685C69.8987 17.7258 69.6123 18.6261 69.6123 19.6342V27.4898H65.7334V13.3484H69.4346V14.9547V15.4068H69.8868H69.9756H70.2133L70.3481 15.211C70.8732 14.4479 71.461 13.88 72.1457 13.501C72.8287 13.1228 73.6325 12.9189 74.6107 12.9189C76.1396 12.9189 77.3184 13.4625 78.1195 14.363C78.9262 15.2697 79.3861 16.5797 79.3861 18.1682Z" fill="#080227" stroke="#080227" stroke-width="0.904268"/>
<path d="M64.3327 8.8851C64.3327 10.222 63.2489 11.3059 61.912 11.3059C60.575 11.3059 59.4912 10.222 59.4912 8.8851C59.4912 7.54815 60.575 6.46434 61.912 6.46434C63.2489 6.46434 64.3327 7.54815 64.3327 8.8851Z" fill="#080227" stroke="#080227" stroke-width="0.904268"/>
<path d="M113.046 16.3745C111.8 16.348 110.721 16.6783 109.926 17.418C109.029 18.2527 108.573 19.5358 108.573 21.1771V27.4778H104.694V13.3512H108.366V15.2388V15.691H108.818H108.907H109.163L109.295 15.4714C109.805 14.6211 110.334 14.0388 110.924 13.6664C111.508 13.2973 112.184 13.1142 113.024 13.1142C113.031 13.1142 113.038 13.1142 113.046 13.1142V16.3745Z" fill="#080227" stroke="#080227" stroke-width="0.904268"/>
<path d="M140.13 14.1293C141.022 14.7854 141.572 15.6956 141.767 16.8299H138.253C138.103 16.25 137.799 15.8115 137.348 15.5171C136.824 15.1746 136.161 15.0677 135.467 15.0677C134.828 15.0677 134.214 15.1859 133.743 15.4724C133.25 15.7725 132.926 16.255 132.926 16.897C132.926 17.3035 133.1 17.6291 133.375 17.8725C133.634 18.1008 133.976 18.2524 134.331 18.3661C134.862 18.5363 135.541 18.6549 136.239 18.7769C136.462 18.8158 136.687 18.8551 136.909 18.8965L136.992 18.452L136.917 18.8978C138.245 19.1217 139.592 19.3895 140.613 20.037C141.114 20.3547 141.528 20.7598 141.82 21.2932C142.113 21.8271 142.297 22.5138 142.3 23.4139C142.3 24.9028 141.652 26.013 140.553 26.7683C139.434 27.5366 137.824 27.9513 135.911 27.9513C133.854 27.9513 132.215 27.4977 131.062 26.7102C130.059 26.025 129.404 25.075 129.154 23.8946H132.849C133.048 24.4508 133.386 24.8954 133.854 25.2098C134.407 25.5816 135.103 25.7457 135.881 25.7457C136.652 25.7457 137.336 25.6058 137.842 25.2905C138.371 24.9611 138.688 24.4476 138.688 23.7979C138.688 23.3452 138.53 22.9702 138.245 22.6759C137.974 22.3954 137.61 22.21 137.226 22.0741C136.629 21.8623 135.862 21.7336 135.09 21.6037C134.891 21.5703 134.692 21.5367 134.494 21.5017L134.491 21.501C133.174 21.2779 131.912 21.0032 130.977 20.3912C130.085 19.8072 129.462 18.8965 129.462 17.2821C129.462 15.8591 130.111 14.7903 131.176 14.0602C132.257 13.3191 133.781 12.9214 135.496 12.9214C137.57 12.9214 139.1 13.3721 140.13 14.1293Z" fill="#080227" stroke="#080227" stroke-width="0.904268"/>
<path d="M117.819 21.1996H117.296L117.372 21.7171C117.529 22.7936 117.909 23.7165 118.558 24.374C119.216 25.0399 120.107 25.3914 121.196 25.3914C121.899 25.3914 122.509 25.2356 123.008 24.9224C123.422 24.6625 123.74 24.3065 123.968 23.881H127.743C127.368 24.9129 126.621 25.8932 125.575 26.61L125.575 26.61L125.573 26.6115C124.395 27.4292 122.961 27.908 121.137 27.908C118.765 27.908 116.884 27.0894 115.595 25.7594C114.304 24.4272 113.577 22.5495 113.577 20.3782C113.577 16.1214 116.533 12.9077 120.84 12.9077C122.879 12.9077 124.472 13.5792 125.674 14.6702C127.255 16.1213 128.103 18.4273 128.16 21.1996H117.819ZM123.772 19.2458H124.272L124.222 18.7491C124.125 17.7719 123.77 16.9366 123.192 16.3407C122.609 15.7406 121.824 15.4094 120.929 15.4094C119.921 15.4094 119.111 15.7361 118.512 16.3439C117.923 16.941 117.577 17.7701 117.404 18.7122L117.306 19.2458H117.849H123.772Z" fill="#080227" stroke="#080227" stroke-width="0.904268"/>
<path d="M148.686 15.4383H148.233V15.8905V22.9394C148.233 23.6078 148.423 24.1359 148.866 24.4715C149.279 24.7848 149.825 24.8576 150.359 24.8576H150.37C150.479 24.8576 150.593 24.8576 150.706 24.8566V27.549C150.252 27.612 149.613 27.6555 148.804 27.6555C147.445 27.6555 146.369 27.4282 145.639 26.8828C144.936 26.358 144.473 25.4761 144.473 23.9612V15.8905V15.4383H144.021H143.007V13.3512H144.021H144.473V12.8991V8.59764H148.233V12.8991V13.3512H148.686H150.706V15.4383H148.686Z" fill="#080227" stroke="#080227" stroke-width="0.904268"/>
<path d="M86.1103 15.4383H85.6582V15.8905V22.9394C85.6582 23.6078 85.8479 24.1359 86.2907 24.4715C86.7041 24.7848 87.2497 24.8576 87.7837 24.8576C87.8403 24.8576 87.8974 24.8566 87.9535 24.8551V27.5695C87.5174 27.6217 86.9372 27.6555 86.2288 27.6555C84.8701 27.6555 83.7941 27.4282 83.0637 26.8828C82.3609 26.358 81.8977 25.4761 81.8977 23.9612V15.8905V15.4383H81.4455H80.3428V13.3512H81.4455H81.8977V12.8991V8.59764H85.6582V12.8991V13.3512H86.1103H87.9535V15.4383H86.1103Z" fill="#080227" stroke="#080227" stroke-width="0.904268"/>
<path d="M100.705 14.6839C102.287 16.1355 103.135 18.429 103.192 21.2133H92.8506H92.3277L92.4032 21.7308C92.5604 22.8072 92.9406 23.7302 93.5895 24.3876C94.2468 25.0536 95.1386 25.4051 96.227 25.4051C96.9241 25.4051 97.5324 25.2489 98.0314 24.9392C98.4455 24.6823 98.7668 24.3305 98.9973 23.9094H102.769C102.388 24.9401 101.65 25.9116 100.604 26.6403C99.4261 27.4577 97.9923 27.9364 96.1685 27.9365C93.7967 27.9293 91.9153 27.107 90.6266 25.7752C89.3355 24.4409 88.6084 22.5631 88.6084 20.3919C88.6084 16.135 91.5645 12.9214 95.8716 12.9214C97.9103 12.9214 99.5035 13.5928 100.705 14.6839ZM98.8185 19.2595H99.3177L99.2685 18.7628C99.1715 17.7855 98.8163 16.9503 98.2377 16.3544C97.6551 15.7543 96.8701 15.4231 95.9753 15.4231C94.9618 15.4231 94.1509 15.7445 93.5522 16.352C92.9645 16.9485 92.6225 17.7788 92.4502 18.7265L92.3533 19.2595H92.895H98.8185Z" fill="#080227" stroke="#080227" stroke-width="0.904268"/>
<path d="M47.0778 20.9247V27.4919H43.1396V7.39745H50.9952C53.4563 7.39745 55.2159 8.08227 56.4159 9.21417L56.4175 9.21567C57.6658 10.3817 58.3917 12.0501 58.3917 14.0535C58.3917 15.9606 57.7347 17.5573 56.5945 18.677C55.4541 19.7969 53.7965 20.4726 51.7356 20.4726H47.53H47.0778V20.9247ZM51.6546 17.2749V17.2394C52.4837 17.1618 53.1791 16.8662 53.6899 16.3667C54.2918 15.7783 54.5868 14.9564 54.5868 14.0239C54.5868 13.0866 54.2811 12.2831 53.67 11.7171C53.0632 11.1551 52.2088 10.8766 51.2025 10.8766H47.53H47.0778V11.3287V16.8227V17.2749H47.53H51.2025H51.6546Z" fill="#080227" stroke="#080227" stroke-width="0.904268"/>
<path d="M35.5331 17.9926C35.5331 27.6799 27.6799 35.5331 17.9926 35.5331C8.30527 35.5331 0.452134 27.6799 0.452134 17.9926C0.452134 8.30527 8.30527 0.452134 17.9926 0.452134C27.6799 0.452134 35.5331 8.30527 35.5331 17.9926Z" stroke="#080227" stroke-width="0.904268"/>
<path d="M17.9926 0C8.04113 0 0 8.05594 0 17.9926C0 25.6191 4.73879 32.1349 11.4323 34.7561C11.2694 33.3344 11.1362 31.1427 11.4916 29.5878C11.8174 28.181 13.5944 20.6434 13.5944 20.6434C13.5944 20.6434 13.0613 19.5623 13.0613 17.9778C13.0613 15.4751 14.5125 13.6092 16.3192 13.6092C17.8593 13.6092 18.5998 14.7643 18.5998 16.1415C18.5998 17.6816 17.6224 19.9918 17.1041 22.139C16.6746 23.9309 18.0074 25.397 19.7696 25.397C22.9683 25.397 25.4266 22.0206 25.4266 17.1633C25.4266 12.854 22.3315 9.8478 17.9037 9.8478C12.7799 9.8478 9.77376 13.6833 9.77376 17.652C9.77376 19.1921 10.3661 20.8507 11.1065 21.754C11.2546 21.9317 11.2694 22.0946 11.225 22.2723C11.0917 22.835 10.7807 24.0642 10.7215 24.3159C10.6475 24.6417 10.455 24.7158 10.1144 24.5529C7.89305 23.4866 6.50103 20.1991 6.50103 17.5631C6.50103 11.8914 10.6179 6.67873 18.3924 6.67873C24.6269 6.67873 29.4842 11.1213 29.4842 17.0745C29.4842 23.2793 25.5747 28.2698 20.1547 28.2698C18.3332 28.2698 16.6154 27.3221 16.0378 26.1966C16.0378 26.1966 15.1345 29.6322 14.9124 30.4763C14.5125 32.0461 13.4167 34.0008 12.6763 35.2003C14.3645 35.7186 16.1415 36 18.0074 36C27.9441 36 36 27.9441 36 18.0074C35.9852 8.05595 27.9292 0 17.9926 0Z" fill="#080227"/>
</svg>
