<svg width="135" height="41" fill="none" xmlns="http://www.w3.org/2000/svg"><path d="M20.961.638c-11.045 0-20 8.954-20 20s8.955 20 20 20c11.047 0 20-8.954 20-20 0-11.045-8.953-20-20-20Zm9.172 28.846a1.245 1.245 0 0 1-1.714.413c-4.696-2.869-10.608-3.518-17.57-1.928a1.247 1.247 0 0 1-.555-2.43c7.62-1.742 14.154-.992 19.426 2.23.588.36.774 1.127.413 1.715Zm2.448-5.446a1.56 1.56 0 0 1-2.144.514c-5.376-3.305-13.571-4.262-19.93-2.331a1.561 1.561 0 0 1-1.946-1.04 1.561 1.561 0 0 1 1.04-1.944c7.263-2.204 16.293-1.136 22.467 2.657.733.452.965 1.412.513 2.144Zm.21-5.671c-6.445-3.829-17.08-4.18-23.235-2.313a1.87 1.87 0 1 1-1.086-3.58c7.065-2.145 18.81-1.73 26.23 2.675a1.867 1.867 0 0 1 .655 2.564 1.869 1.869 0 0 1-2.563.654Zm22.584.734c-3.453-.824-4.067-1.402-4.067-2.616 0-1.147 1.08-1.92 2.687-1.92 1.557 0 3.1.587 4.72 1.794.047.036.109.05.169.041a.223.223 0 0 0 .15-.092l1.686-2.377a.227.227 0 0 0-.043-.307c-1.927-1.546-4.096-2.298-6.632-2.298-3.728 0-6.334 2.238-6.334 5.44 0 3.432 2.248 4.648 6.131 5.586 3.303.761 3.862 1.4 3.862 2.539 0 1.263-1.127 2.05-2.943 2.05-2.015 0-3.66-.682-5.5-2.272a.234.234 0 0 0-.165-.055.223.223 0 0 0-.155.079l-1.891 2.25a.227.227 0 0 0 .021.315c2.14 1.91 4.772 2.918 7.614 2.918 4.017 0 6.613-2.195 6.613-5.593.008-2.868-1.71-4.456-5.916-5.48l-.007-.002Zm15.013-3.406c-1.74 0-3.17.686-4.349 2.091v-1.582a.226.226 0 0 0-.224-.226h-3.093a.226.226 0 0 0-.225.226v17.578c0 .125.1.227.225.227h3.093a.226.226 0 0 0 .224-.227v-5.547c1.18 1.32 2.608 1.968 4.35 1.968 3.235 0 6.512-2.491 6.512-7.254.005-4.763-3.272-7.254-6.51-7.254h-.003Zm2.916 7.254c0 2.424-1.492 4.118-3.632 4.118-2.114 0-3.71-1.77-3.71-4.118 0-2.347 1.596-4.117 3.71-4.117 2.104 0 3.632 1.731 3.632 4.117Zm11.992-7.254c-4.168 0-7.432 3.209-7.432 7.306 0 4.054 3.243 7.228 7.382 7.228 4.182 0 7.456-3.198 7.456-7.28 0-4.067-3.253-7.254-7.406-7.254Zm0 11.395c-2.216 0-3.888-1.781-3.888-4.142 0-2.371 1.614-4.092 3.838-4.092 2.23 0 3.912 1.781 3.912 4.144 0 2.371-1.624 4.09-3.862 4.09Zm16.305-11.112h-3.403v-3.479a.226.226 0 0 0-.225-.226H94.88a.228.228 0 0 0-.227.226v3.479h-1.485a.226.226 0 0 0-.225.226v2.658c0 .125.1.227.225.227h1.485v6.877c0 2.777 1.383 4.186 4.113 4.186 1.108 0 2.028-.229 2.895-.72a.222.222 0 0 0 .114-.197v-2.531c0-.077-.04-.15-.107-.191a.221.221 0 0 0-.22-.01 3.904 3.904 0 0 1-1.815.437c-.991 0-1.435-.451-1.435-1.46v-6.39h3.403a.225.225 0 0 0 .224-.227v-2.657a.22.22 0 0 0-.222-.227l-.002-.001Zm11.855.013v-.427c0-1.257.483-1.817 1.562-1.817.645 0 1.163.128 1.744.321a.224.224 0 0 0 .272-.112.23.23 0 0 0 .024-.103v-2.606a.222.222 0 0 0-.16-.217 8.472 8.472 0 0 0-2.57-.37c-2.854 0-4.366 1.609-4.366 4.65v.654h-1.485a.228.228 0 0 0-.227.227v2.67c0 .125.103.227.227.227h1.485v10.606c0 .126.103.227.227.227h3.091c.126 0 .227-.1.227-.227V19.089h2.887l4.423 10.605c-.501 1.113-.996 1.335-1.669 1.335-.545 0-1.12-.163-1.705-.485a.249.249 0 0 0-.18-.017.226.226 0 0 0-.133.122l-1.049 2.3a.226.226 0 0 0 .098.294c1.094.592 2.08.845 3.301.845 2.283 0 3.546-1.065 4.657-3.926l5.364-13.861a.223.223 0 0 0-.024-.21.219.219 0 0 0-.184-.099h-3.219a.226.226 0 0 0-.215.152l-3.298 9.418-3.611-9.424a.229.229 0 0 0-.211-.146h-5.283Zm-6.873-.013h-3.093a.228.228 0 0 0-.227.226v13.49c0 .126.103.227.227.227h3.093c.124 0 .227-.1.227-.227V16.205a.224.224 0 0 0-.067-.16.227.227 0 0 0-.16-.066v-.001Zm-1.529-6.143a2.217 2.217 0 1 0 0 4.435 2.217 2.217 0 1 0 0-4.435Zm27.089 10.48a2.168 2.168 0 0 1-2.176-2.176c0-1.194.965-2.188 2.187-2.188 1.223 0 2.176.983 2.176 2.175a2.189 2.189 0 0 1-2.187 2.19Zm.011-4.147c-1.115 0-1.958.886-1.958 1.97 0 1.085.838 1.96 1.947 1.96 1.115 0 1.958-.886 1.958-1.971s-.838-1.96-1.947-1.96Zm.483 2.182.616.862h-.521l-.554-.79h-.475v.79h-.435v-2.284h1.018c.532 0 .881.271.881.729.002.374-.215.603-.528.693h-.002Zm-.368-1.03h-.566v.722h.566c.282 0 .451-.138.451-.361 0-.235-.169-.361-.451-.361Z" fill="#080227"/></svg>